# xmcd CD database file
#
# Track frame offsets:
#	150
#	16667
#	33015
#	48458
#	65002
#	79469
#	96703
#	112440
#	126964
#	142182
#	158203
#	172421
#	187217
#	202507
#
# Disc length: 2917 seconds
#
# Revision: 0
# Processed by: cddbd v1.5.1PL2 Copyright (c) Steve Scherf et al.
# Submitted via: CDex 1.51
#
DISCID=d60b630e
DTITLE=Dusko Kulis - Imas li dusu
DYEAR=1900
DGENRE=Narodne
TTITLE0=Suzana
TTITLE1=Ostani kraj mene
TTITLE2=Samo reci da
TTITLE3=Da si znala, majko
TTITLE4=Tece voda
TTITLE5=Cetrdeseta
TTITLE6=Imas li dusu
TTITLE7=Baci ruzu
TTITLE8=Jelena
TTITLE9=Kuco od kamena
TTITLE10=O Cigani
TTITLE11=Drugome dajes sve
TTITLE12=Ivana
TTITLE13=Ubijedicu sebe
EXTD=
EXTT0=
EXTT1=
EXTT2=
EXTT3=
EXTT4=
EXTT5=
EXTT6=
EXTT7=
EXTT8=
EXTT9=
EXTT10=
EXTT11=
EXTT12=
EXTT13=
PLAYORDER=
